<svg width="512" height="512" viewBox="0 0 512 512" fill="none" xmlns="http://www.w3.org/2000/svg">
  <!-- Outer Crust (The sticker border effect) -->
  <path d="M256 40C136.7 40 40 136.7 40 256C40 375.3 136.7 472 256 472C375.3 472 472 375.3 472 256C472 136.7 375.3 40 256 40Z" fill="#8B4513" stroke="#4A2610" stroke-width="12"/>
  
  <!-- Main Crust -->
  <path d="M256 60C147.7 60 60 147.7 60 256C60 364.3 147.7 452 256 452C364.3 452 452 364.3 452 256C452 147.7 364.3 60 256 60Z" fill="#F4A460" stroke="#4A2610" stroke-width="8"/>
  
  <!-- Cheese Area (Irregular blob for organic feel) -->
  <path d="M256 90C164.3 90 90 164.3 90 256C90 347.7 164.3 422 256 422C347.7 422 422 347.7 422 256C422 164.3 347.7 90 256 90Z" fill="#FFD700" stroke="#4A2610" stroke-width="8"/>
  
  <!-- Sauce Peeking through -->
  <path d="M200 120C180 120 160 140 160 160C160 180 180 200 200 200C220 200 240 180 240 160C240 140 220 120 200 120Z" fill="#D2222D" opacity="0.3"/>
  <path d="M320 280C300 280 280 300 280 320C280 340 300 360 320 360C340 360 360 340 360 320C360 300 340 280 320 280Z" fill="#D2222D" opacity="0.3"/>
  
  <!-- Pepperoni 1 -->
  <circle cx="180" cy="180" r="35" fill="#B22222" stroke="#4A2610" stroke-width="8"/>
  <path d="M170 170C170 170 175 160 185 165" stroke="white" stroke-width="4" stroke-linecap="round" opacity="0.4"/>
  
  <!-- Pepperoni 2 -->
  <circle cx="330" cy="200" r="40" fill="#B22222" stroke="#4A2610" stroke-width="8"/>
  <path d="M320 190C320 190 325 180 335 185" stroke="white" stroke-width="4" stroke-linecap="round" opacity="0.4"/>
  
  <!-- Pepperoni 3 -->
  <circle cx="220" cy="340" r="38" fill="#B22222" stroke="#4A2610" stroke-width="8"/>
  <path d="M210 330C210 330 215 320 225 325" stroke="white" stroke-width="4" stroke-linecap="round" opacity="0.4"/>
  
  <!-- Pepperoni 4 -->
  <circle cx="350" cy="320" r="32" fill="#B22222" stroke="#4A2610" stroke-width="8"/>
  
  <!-- Pepperoni 5 -->
  <circle cx="150" cy="300" r="30" fill="#B22222" stroke="#4A2610" stroke-width="8"/>
  
  <!-- Green Pepper Bits -->
  <rect x="250" y="240" width="15" height="15" rx="4" fill="#228B22" stroke="#4A2610" stroke-width="4" transform="rotate(15 250 240)"/>
  <rect x="280" y="140" width="15" height="15" rx="4" fill="#228B22" stroke="#4A2610" stroke-width="4" transform="rotate(-20 280 140)"/>
  <rect x="120" y="220" width="15" height="15" rx="4" fill="#228B22" stroke="#4A2610" stroke-width="4" transform="rotate(45 120 220)"/>
</svg>
